<svg xmlns="http://www.w3.org/2000/svg" width="33.156" height="33.156" viewBox="0 0 33.156 33.156"><defs><style>.a{fill:#53993c;}</style></defs><path class="a" d="M11.168,18.849A27.9,27.9,0,0,0,23.307,30.988l4.052-4.052a1.831,1.831,0,0,1,1.879-.442,21.012,21.012,0,0,0,6.576,1.05,1.847,1.847,0,0,1,1.842,1.842v6.429a1.847,1.847,0,0,1-1.842,1.842A31.311,31.311,0,0,1,4.5,6.342,1.847,1.847,0,0,1,6.342,4.5h6.447a1.847,1.847,0,0,1,1.842,1.842,20.926,20.926,0,0,0,1.05,6.576,1.849,1.849,0,0,1-.461,1.879l-4.052,4.052Z" transform="translate(-4.5 -4.5)"/></svg>