<svg xmlns="http://www.w3.org/2000/svg" width="21.125" height="21.165" viewBox="0 0 21.125 21.165"><defs><style>.a{fill:none;stroke:#519e92;stroke-linecap:round;stroke-linejoin:round;}</style></defs><g transform="translate(0.501 0.5)"><path class="a" d="M23.291,18.1v3.035a2.024,2.024,0,0,1-2.206,2.024,20.024,20.024,0,0,1-8.732-3.106,19.731,19.731,0,0,1-6.071-6.071A20.024,20.024,0,0,1,3.176,5.206,2.024,2.024,0,0,1,5.19,3H8.225a2.024,2.024,0,0,1,2.024,1.74,12.992,12.992,0,0,0,.708,2.843A2.024,2.024,0,0,1,10.5,9.718L9.217,11a16.189,16.189,0,0,0,6.071,6.071l1.285-1.285a2.024,2.024,0,0,1,2.135-.455,12.992,12.992,0,0,0,2.843.708,2.024,2.024,0,0,1,1.74,2.054Z" transform="translate(-3.168 -3)"/></g></svg>